<svg width="120" height="14" fill="none" xmlns="http://www.w3.org/2000/svg"><g fill="#000"><path d="M9.423 1.529v6.634c0 2.212-.961 3.126-3.27 3.126-2.307 0-3.268-.914-3.268-3.126V1.24H.673a.31.31 0 0 0-.288.289v6.73c0 3.702 2.355 5 5.769 5 3.413 0 5.77-1.298 5.77-5V1.24H9.711c-.145 0-.289.097-.289.289ZM41.587 3.163c.192 0 .288-.048.336-.192l.625-1.586c.048-.097 0-.145-.096-.145H33.51c-.818 0-1.154.24-1.154.818v10.288c0 .48.24.721.865.721h8.318c.192 0 .288-.048.336-.192l.625-1.586c.048-.097 0-.145-.096-.145h-7.596V9.03c0-.721.384-1.058 1.49-1.058h3.317c.193 0 .289-.048.337-.192l.625-1.539c.048-.096 0-.144-.096-.144h-5.625v-2.98h6.73v.047Z"/><path fill-rule="evenodd" clip-rule="evenodd" d="M25.865 6.817c.962-.529 1.347-1.442 1.347-2.596 0-2.596-2.116-2.98-4.327-2.98h-5.049c-.817 0-1.153.24-1.153.817v10.288c0 .48.24.721.865.721h6.202c2.356 0 3.99-.913 3.99-3.269.048-1.442-.528-2.644-1.875-2.98Zm-6.682-3.702h3.894c1.298 0 1.683.481 1.683 1.49 0 1.01-.385 1.491-1.683 1.491h-3.894v-2.98Zm0 8.03h4.375c1.394 0 1.779-.481 1.779-1.587 0-1.106-.385-1.635-1.78-1.635h-2.884c-1.106 0-1.49.337-1.49 1.058v2.163ZM55.385 8.308l2.644 4.567c.048.048.048.192-.048.192h-2.26c-.192 0-.24-.048-.336-.192L52.98 8.548h-2.164c-1.105 0-1.49.337-1.49 1.058v3.461h-2.163a.31.31 0 0 1-.289-.288V2.058c0-.577.337-.818 1.154-.818h5.048c2.933 0 4.712.77 4.712 3.654 0 2.212-1.106 3.077-2.404 3.414ZM49.279 6.72h4.134c1.539 0 1.876-.577 1.876-1.827 0-1.202-.337-1.779-1.876-1.779H49.28v3.606Z"/></g><g fill="#57AD56"><path d="m76.442 12.01-.048 1.057h-8.75V1.24h8.414l.048 1.106h-7.26v4.087h6.25v.961h-6.25v4.616h7.596Z" stroke="#57AD56" stroke-width=".25"/><path fill-rule="evenodd" clip-rule="evenodd" d="M83.702 9.99h6.971l1.346 3.077h1.346L87.933 1.24h-1.395l-5.48 11.827h1.298l1.346-3.077Zm.433-1.01 2.548-5.72.48-1.202h.049l.48 1.202 2.5 5.72h-6.057Z"/><path d="m90.673 9.99.115-.05-.033-.075h-.082v.125Zm-6.971 0v-.125h-.082l-.033.075.115.05Zm8.317 3.077-.114.05.032.075h.082v-.125Zm1.346 0v.125h.195l-.081-.177-.114.052ZM87.933 1.24l.113-.052-.033-.073h-.08v.125Zm-1.395 0v-.125h-.08l-.033.073.113.052Zm-5.48 11.827-.114-.052-.082.177h.196v-.125Zm1.298 0v.125h.082l.032-.075-.114-.05Zm4.327-9.807.114.05.002-.004-.116-.046Zm-2.548 5.72-.115-.05-.078.176h.193V8.98Zm3.028-6.922v-.125h-.084l-.032.078.116.047Zm.049 0 .116-.047-.032-.078h-.085v.125Zm.48 1.202-.116.046.002.004.114-.05Zm2.5 5.72v.126h.191l-.076-.175-.115.05Zm.481.885h-6.971v.25h6.971v-.25Zm1.46 3.152L90.789 9.94l-.23.1 1.347 3.077.229-.1Zm1.232-.075H92.02v.25h1.346v-.25ZM87.82 1.292l5.433 11.828.227-.105-5.433-11.827-.227.105Zm-1.28.073h1.394v-.25h-1.395v.25ZM81.17 13.12l5.48-11.827-.226-.105-5.48 11.827.226.105Zm1.185-.178h-1.298v.25h1.298v-.25Zm1.231-3.002-1.346 3.077.23.1 1.345-3.077-.229-.1Zm2.981-6.731-2.548 5.72.229.103 2.548-5.722-.228-.101Zm.48-1.198-.481 1.202.232.093.48-1.202-.232-.093Zm.163-.078h-.048v.25h.049v-.25Zm.597 1.28-.48-1.202-.233.093.481 1.202.232-.093Zm2.499 5.718-2.5-5.721-.23.1 2.5 5.72.23-.1Zm-6.172.175h6.057v-.25h-6.057v.25Z"/><path d="M102.019 2.346v10.721h-1.202V2.347h-4.423l.048-1.107h10.048v1.106h-4.471ZM115.048 13.308c-1.635 0-2.933-.385-3.99-1.01l.192-1.058a7.627 7.627 0 0 0 3.846 1.01c2.212 0 3.366-1.01 3.366-2.452 0-3.125-7.212-1.49-7.212-5.529 0-1.73 1.298-3.269 4.327-3.269 1.394 0 2.644.24 3.654.721l-.193 1.01c-1.105-.433-2.163-.673-3.413-.673-2.356 0-3.221 1.057-3.221 2.115 0 2.98 7.211 1.298 7.211 5.529-.048 2.115-1.586 3.606-4.567 3.606Z" stroke="#57AD56" stroke-width=".25"/></g></svg>