<svg width="192" height="21" fill="none" xmlns="http://www.w3.org/2000/svg"><g fill="#fff"><path d="M15.077 1.846v10.616c0 3.538-1.538 5-5.23 5-3.693 0-5.232-1.462-5.232-5V1.385H1.077c-.23 0-.462.23-.462.461v10.77c0 5.922 3.77 8 9.231 8 5.462 0 9.23-2.078 9.23-8V1.384H15.54c-.231 0-.462.153-.462.461ZM66.538 4.462c.308 0 .462-.077.539-.308l1-2.539c.077-.153 0-.23-.154-.23H53.615c-1.307 0-1.846.384-1.846 1.307v16.462c0 .77.385 1.154 1.385 1.154H66.46c.308 0 .462-.077.539-.308l1-2.538c.077-.154 0-.231-.154-.231H55.692v-3.385c0-1.154.616-1.692 2.385-1.692h5.308c.307 0 .461-.077.538-.308l1-2.461c.077-.154 0-.231-.154-.231h-9v-4.77h10.77v.078Z"/><path fill-rule="evenodd" clip-rule="evenodd" d="M41.385 10.308c1.538-.846 2.154-2.308 2.154-4.154 0-4.154-3.385-4.77-6.924-4.77h-8.077c-1.307 0-1.846.385-1.846 1.308v16.462c0 .77.385 1.154 1.385 1.154H38c3.77 0 6.385-1.462 6.385-5.231.077-2.308-.846-4.23-3-4.77ZM30.692 4.385h6.231c2.077 0 2.692.769 2.692 2.384 0 1.616-.615 2.385-2.692 2.385h-6.23v-4.77Zm0 12.846h7c2.231 0 2.846-.77 2.846-2.539 0-1.769-.615-2.615-2.846-2.615h-4.615c-1.77 0-2.385.538-2.385 1.692v3.462ZM88.615 12.692 92.846 20c.077.077.077.308-.077.308h-3.615c-.308 0-.385-.077-.539-.308l-3.846-6.923h-3.461c-1.77 0-2.385.538-2.385 1.692v5.539h-3.462a.496.496 0 0 1-.461-.462V2.692c0-.923.538-1.307 1.846-1.307h8.077c4.692 0 7.538 1.23 7.538 5.846 0 3.538-1.769 4.923-3.846 5.461Zm-9.769-2.538h6.615c2.462 0 3-.923 3-2.923 0-1.923-.538-2.846-3-2.846h-6.615v5.769Z"/></g><g fill="#57AD56"><path d="m122.308 18.615-.077 1.693h-14V1.385h13.461l.077 1.769h-11.615v6.538h10v1.539h-10v7.384h12.154Z" stroke="#57AD56" stroke-width=".25"/><path fill-rule="evenodd" clip-rule="evenodd" d="M133.923 15.385h11.154l2.154 4.923h2.154l-8.693-18.923h-2.23l-8.77 18.923h2.077l2.154-4.923Zm.692-1.616 4.077-9.154.77-1.923h.076l.77 1.923 4 9.154h-9.693Z"/><path d="m145.077 15.385.114-.05-.032-.075h-.082v.125Zm-11.154 0v-.125h-.082l-.032.075.114.05Zm13.308 4.923-.115.05.033.075h.082v-.125Zm2.154 0v.125h.195l-.082-.177-.113.052Zm-8.693-18.923.114-.053-.034-.072h-.08v.125Zm-2.23 0V1.26h-.08l-.034.072.114.053Zm-8.77 18.923-.113-.053-.082.178h.195v-.125Zm2.077 0v.125h.082l.033-.075-.115-.05Zm6.923-15.693.115.051.001-.004-.116-.047Zm-4.077 9.154-.114-.05-.078.175h.192v-.125Zm4.847-11.077v-.125h-.085l-.032.079.117.046Zm.076 0 .117-.046-.032-.079h-.085v.125Zm.77 1.923-.116.047.001.003.115-.05Zm4 9.154v.125h.191l-.077-.175-.114.05Zm.769 1.49h-11.154v.25h11.154v-.25Zm2.268 4.999-2.154-4.923-.229.1 2.154 4.923.229-.1Zm2.04-.075h-2.154v.25h2.154v-.25Zm-8.806-18.746 8.692 18.923.227-.104-8.692-18.924-.227.105Zm-2.117.073h2.23v-.25h-2.23v.25Zm-8.656 18.85 8.769-18.923-.227-.105-8.769 18.923.227.105Zm1.963-.177h-2.077v.25h2.077v-.25Zm2.04-4.848-2.154 4.923.229.1 2.154-4.923-.229-.1Zm4.769-10.77-4.077 9.153.229.102 4.077-9.154-.229-.101Zm.767-1.92-.769 1.924.232.093.77-1.923-.233-.093Zm.193-.078h-.076v.25h.076v-.25Zm.886 2.002-.769-1.923-.233.093.77 1.923.232-.093Zm3.998 9.15-4-9.154-.229.1 4 9.154.229-.1Zm-9.807.175h9.693v-.25h-9.693v.25Z"/><path d="M163.231 3.154v17.154h-1.923V3.154h-7.077l.077-1.77h16.077v1.77h-7.154ZM184.077 20.692c-2.615 0-4.692-.615-6.385-1.615l.308-1.692A12.2 12.2 0 0 0 184.154 19c3.538 0 5.384-1.615 5.384-3.923 0-5-11.538-2.385-11.538-8.846C178 3.46 180.077 1 184.923 1c2.231 0 4.231.385 5.846 1.154l-.307 1.615C188.692 3.077 187 2.692 185 2.692c-3.769 0-5.154 1.693-5.154 3.385 0 4.77 11.539 2.077 11.539 8.846-.077 3.385-2.539 5.77-7.308 5.77Z" stroke="#57AD56" stroke-width=".25"/></g></svg>