<svg width="24" height="24" fill="none" xmlns="http://www.w3.org/2000/svg"><path fill-rule="evenodd" clip-rule="evenodd" d="M16.032 3H7.967A4.973 4.973 0 0 0 3 7.967v8.066A4.973 4.973 0 0 0 7.967 21h8.066A4.973 4.973 0 0 0 21 16.033V7.967A4.973 4.973 0 0 0 16.032 3ZM20 16.358A3.646 3.646 0 0 1 16.358 20H7.642A3.646 3.646 0 0 1 4 16.358V7.642A3.646 3.646 0 0 1 7.642 4h8.716A3.646 3.646 0 0 1 20 7.642v8.716ZM7.362 12A4.643 4.643 0 0 1 12 7.362 4.643 4.643 0 0 1 16.638 12 4.643 4.643 0 0 1 12 16.638 4.643 4.643 0 0 1 7.362 12Zm9.073-6.166a.803.803 0 0 1 1.13 0 .803.803 0 0 1 0 1.132A.808.808 0 0 1 17 7.2a.806.806 0 0 1-.565-.234.807.807 0 0 1-.235-.566c0-.21.086-.417.235-.566Z" fill="#fff"/><mask id="a" style="mask-type:alpha" maskUnits="userSpaceOnUse" x="7" y="5" width="11" height="12"><path fill-rule="evenodd" clip-rule="evenodd" d="M16.435 5.834a.803.803 0 0 1 1.13 0 .803.803 0 0 1 0 1.132A.808.808 0 0 1 17 7.2a.806.806 0 0 1-.565-.234.807.807 0 0 1-.235-.566c0-.21.086-.417.235-.566ZM12 7.362A4.643 4.643 0 0 0 7.362 12 4.643 4.643 0 0 0 12 16.638 4.643 4.643 0 0 0 16.638 12 4.643 4.643 0 0 0 12 7.362Zm0 8.478A3.844 3.844 0 0 1 8.16 12 3.844 3.844 0 0 1 12 8.16 3.844 3.844 0 0 1 15.84 12 3.844 3.844 0 0 1 12 15.84Z" fill="#fff"/></mask></svg>